<svg xmlns="http://www.w3.org/2000/svg" width="1920" height="1180" viewBox="0 0 1920 1180" role="img">
<defs>
<marker id="arrowAccent" viewBox="0 0 10 10" refX="9.2" refY="5" markerWidth="10" markerHeight="10" orient="auto"><path d="M0,0 L10,5 L0,10 Z" fill="#b45309"/></marker>
<marker id="arrowGray" viewBox="0 0 10 10" refX="9.2" refY="5" markerWidth="10" markerHeight="10" orient="auto"><path d="M0,0 L10,5 L0,10 Z" fill="#475569"/></marker>
<marker id="arrowFault" viewBox="0 0 10 10" refX="9.2" refY="5" markerWidth="10" markerHeight="10" orient="auto"><path d="M0,0 L10,5 L0,10 Z" fill="#dc2626"/></marker>
<filter id="shadow" x="-3%" y="-4%" width="106%" height="108%"><feDropShadow dx="0" dy="8" stdDeviation="10" flood-color="#0f172a" flood-opacity="0.10"/></filter>
<style>
.bg{fill:#f8fafc}.panel{fill:#ffffff;stroke:#cbd5e1;stroke-width:1.5;filter:url(#shadow)}
.title{font:800 36px 'Inter','Segoe UI',Arial,sans-serif;fill:#0f172a}.subtitle{font:500 17px 'Inter','Segoe UI',Arial,sans-serif;fill:#475569}
.panelTitle{font:750 22px 'Inter','Segoe UI',Arial,sans-serif;fill:#0f172a}.panelSub{font:500 15px 'Inter','Segoe UI',Arial,sans-serif;fill:#475569}
.strong{font:760 15px 'Inter','Segoe UI',Arial,sans-serif;fill:#0f172a}.body{font:500 14px 'Inter','Segoe UI',Arial,sans-serif;fill:#334155}.small{font:500 13px 'Inter','Segoe UI',Arial,sans-serif;fill:#475569}
.mono{font:650 14px 'Cascadia Mono','SFMono-Regular',Consolas,monospace;fill:#0f172a}.label{font:800 14px 'Inter','Segoe UI',Arial,sans-serif;fill:#ffffff}.caption{font:500 13px 'Inter','Segoe UI',Arial,sans-serif;fill:#64748b}
.accentArrow{stroke:#b45309;stroke-width:2.6;fill:none;marker-end:url(#arrowAccent)}.dashArrow{stroke:#64748b;stroke-width:2.0;fill:none;stroke-dasharray:7 6;marker-end:url(#arrowGray)}.faultArrow{stroke:#dc2626;stroke-width:2.2;fill:none;stroke-dasharray:5 5;marker-end:url(#arrowFault)}
</style>
</defs>
<rect class="bg" width="1920" height="1180"/>
<text x="56" y="66" class="title">Neo N4 技术原理</text>
<text x="56" y="98" class="subtitle">正确性模型：确定性执行、规范承诺、数据可用性和可验证结算。</text>
<rect x="56" y="118" width="1808" height="38" rx="6" fill="#fff7ed" stroke="#b45309" stroke-width="1.2"/>
<text x="76" y="143" class="small">读图方式： <tspan class="strong">把 Neo N4 当作协议系统学习，而不是当作代码目录学习。</tspan></text>
<rect x="56" y="178" width="870" height="392" rx="10" class="panel"/>
<rect x="56" y="178" width="870" height="54" rx="10" fill="#fff7ed"/>
<circle cx="86" cy="206" r="16" fill="#b45309"/>
<text x="86" y="211" text-anchor="middle" class="label">a</text>
<text x="114" y="210" class="panelTitle">系统拓扑</text>
<text x="114" y="230" class="panelSub">主要平面、边界和职责</text>
<rect x="966" y="178" width="898" height="392" rx="10" class="panel"/>
<rect x="966" y="178" width="898" height="54" rx="10" fill="#fff7ed"/>
<circle cx="996" cy="206" r="16" fill="#b45309"/>
<text x="996" y="211" text-anchor="middle" class="label">b</text>
<text x="1024" y="210" class="panelTitle">技术模型</text>
<text x="1024" y="230" class="panelSub">正确性规则和接受条件</text>
<rect x="56" y="606" width="1240" height="494" rx="10" class="panel"/>
<rect x="56" y="606" width="1240" height="54" rx="10" fill="#fff7ed"/>
<circle cx="86" cy="634" r="16" fill="#b45309"/>
<text x="86" y="639" text-anchor="middle" class="label">c</text>
<text x="114" y="638" class="panelTitle">编号路径</text>
<text x="114" y="658" class="panelSub">对象如何沿协议推进</text>
<rect x="1334" y="606" width="530" height="494" rx="10" class="panel"/>
<rect x="1334" y="606" width="530" height="54" rx="10" fill="#fff7ed"/>
<circle cx="1364" cy="634" r="16" fill="#b45309"/>
<text x="1364" y="639" text-anchor="middle" class="label">d</text>
<text x="1392" y="638" class="panelTitle">审计检查点</text>
<text x="1392" y="658" class="panelSub">读者应重点验证的条件</text>
<rect x="92" y="270" width="180" height="208" rx="8" fill="#fff7ed" stroke="#b45309" stroke-width="1.4"/>
<text x="106" y="298" class="strong">确定性执行</text>
<text x="106" y="328" class="body">同一有序输入和同一状态必须产生同一后状态根</text>
<path class="accentArrow" d="M272 374 C284 374 290 374 300 428"/>
<rect x="300" y="324" width="180" height="208" rx="8" fill="#fff7ed" stroke="#b45309" stroke-width="1.4"/>
<text x="314" y="352" class="strong">规范承诺</text>
<text x="314" y="382" class="body">批次、消息、提款和公开输入都有稳定字节编码</text>
<path class="accentArrow" d="M480 428 C492 374 498 374 508 374"/>
<rect x="508" y="270" width="180" height="208" rx="8" fill="#fff7ed" stroke="#b45309" stroke-width="1.4"/>
<text x="522" y="298" class="strong">数据可用性</text>
<text x="522" y="328" class="body">NeoFS</text>
<text x="522" y="346" class="body">内容标识把被接受的根绑定到可取回数据</text>
<path class="accentArrow" d="M688 374 C700 374 706 374 716 428"/>
<rect x="716" y="324" width="180" height="208" rx="8" fill="#fff7ed" stroke="#b45309" stroke-width="1.4"/>
<text x="730" y="352" class="strong">可验证结算</text>
<text x="730" y="382" class="body">NeoHub</text>
<text x="730" y="400" class="body">只通过配置好的验证策略接受状态变化</text>
<line x1="296" y1="528" x2="752" y2="528" stroke="#b45309" stroke-width="1.4" stroke-dasharray="6 6"/>
<text x="522" y="552" class="caption" text-anchor="middle">registry + commitments + proofs + DA references</text>
<rect x="1000" y="252" width="828" height="62" rx="8" fill="#fff7ed" stroke="#b45309" stroke-width="1.5"/>
<text x="1020" y="290" class="mono">delta(状态, 输入, 见证) -&gt; 新状态 + 证据</text>
<rect x="1012" y="342" width="630" height="54" rx="8" fill="#ffffff" stroke="#cbd5e1" stroke-width="1.2"/>
<circle cx="1038" cy="369" r="15" fill="#b45309"/>
<text x="1038" y="374" text-anchor="middle" class="label">1</text>
<text x="1066" y="365" class="strong">状态转换</text>
<text x="1066" y="385" class="small">delta(状态, 交易序列, 见证) -&gt; 新状态，并产生回执、根和公开输入。</text>
<path class="accentArrow" d="M1328 396 L1328 414"/>
<rect x="1012" y="414" width="630" height="54" rx="8" fill="#ffffff" stroke="#cbd5e1" stroke-width="1.2"/>
<circle cx="1038" cy="441" r="15" fill="#b45309"/>
<text x="1038" y="446" text-anchor="middle" class="label">2</text>
<text x="1066" y="437" class="strong">接受规则</text>
<text x="1066" y="457" class="small">当且仅当链已注册、DA 已绑定、证明通过且根匹配时接受。</text>
<path class="accentArrow" d="M1328 468 L1328 486"/>
<rect x="1012" y="486" width="630" height="54" rx="8" fill="#ffffff" stroke="#cbd5e1" stroke-width="1.2"/>
<circle cx="1038" cy="513" r="15" fill="#b45309"/>
<text x="1038" y="518" text-anchor="middle" class="label">3</text>
<text x="1066" y="509" class="strong">拒绝规则</text>
<text x="1066" y="529" class="small">无效数据、缺失 DA、验证器不匹配或重放消息不能推进状态。</text>
<rect x="1672" y="358" width="146" height="174" rx="8" fill="#ffffff" stroke="#b45309" stroke-width="1.4"/>
<text x="1686" y="386" class="strong">Acceptance</text>
<text x="1686" y="416" class="body">接受条件 = 已注册 &amp;&amp; DA</text>
<text x="1686" y="434" class="body">已绑定 &amp;&amp; 验证器接受 &amp;&amp;</text>
<text x="1686" y="452" class="body">根匹配</text>
<path class="dashArrow" d="M1642 460 L1672 460"/>
<text x="1014" y="562" class="mono">接受条件 = 已注册 &amp;&amp; DA 已绑定 &amp;&amp; 验证器接受 &amp;&amp; 根匹配</text>
<rect x="92" y="730" width="150" height="120" rx="8" fill="#fff7ed" stroke="#b45309" stroke-width="1.5"/>
<rect x="102" y="740" width="30" height="24" rx="5" fill="#b45309"/>
<text x="117" y="757" text-anchor="middle" class="label">1</text>
<text x="140" y="758" class="strong">规范化</text>
<text x="104" y="788" class="small">把交易和桥事件转换为规范对象</text>
<path class="accentArrow" d="M242 790 L290 790"/>
<rect x="290" y="730" width="150" height="120" rx="8" fill="#fff7ed" stroke="#b45309" stroke-width="1.5"/>
<rect x="300" y="740" width="30" height="24" rx="5" fill="#b45309"/>
<text x="315" y="757" text-anchor="middle" class="label">2</text>
<text x="338" y="758" class="strong">承诺</text>
<text x="302" y="788" class="small">计算根和公开输入哈希</text>
<path class="accentArrow" d="M440 790 L488 790"/>
<rect x="488" y="730" width="150" height="120" rx="8" fill="#fff7ed" stroke="#b45309" stroke-width="1.5"/>
<rect x="498" y="740" width="30" height="24" rx="5" fill="#b45309"/>
<text x="513" y="757" text-anchor="middle" class="label">3</text>
<text x="536" y="758" class="strong">发布</text>
<text x="500" y="788" class="small">把批次数据和见证材料写入 NeoFS</text>
<path class="accentArrow" d="M638 790 L686 790"/>
<rect x="686" y="730" width="150" height="120" rx="8" fill="#fff7ed" stroke="#b45309" stroke-width="1.5"/>
<rect x="696" y="740" width="30" height="24" rx="5" fill="#b45309"/>
<text x="711" y="757" text-anchor="middle" class="label">4</text>
<text x="734" y="758" class="strong">验证</text>
<text x="698" y="788" class="small">检查证明封装和验证器注册策略</text>
<path class="accentArrow" d="M836 790 L884 790"/>
<rect x="884" y="730" width="150" height="120" rx="8" fill="#fff7ed" stroke="#b45309" stroke-width="1.5"/>
<rect x="894" y="740" width="30" height="24" rx="5" fill="#b45309"/>
<text x="909" y="757" text-anchor="middle" class="label">5</text>
<text x="932" y="758" class="strong">终局</text>
<text x="896" y="788" class="small">推进链状态并解锁消息</text>
<path class="accentArrow" d="M1034 790 L1082 790"/>
<rect x="1082" y="730" width="150" height="120" rx="8" fill="#fff7ed" stroke="#b45309" stroke-width="1.5"/>
<rect x="1092" y="740" width="30" height="24" rx="5" fill="#b45309"/>
<text x="1107" y="757" text-anchor="middle" class="label">6</text>
<text x="1130" y="758" class="strong">观测</text>
<text x="1094" y="788" class="small">输出回执、报告、指标和审计日志</text>
<path class="dashArrow" d="M182 900 C412 974 852 974 1132 900"/>
<rect x="482" y="914" width="210" height="120" rx="8" fill="#fff1f2" stroke="#dc2626" stroke-width="1.4"/>
<text x="496" y="942" class="strong">Reject / Recover</text>
<text x="496" y="972" class="body">missing data, bad proof,</text>
<text x="496" y="990" class="body">replay, timeout, governance</text>
<text x="496" y="1008" class="body">pause</text>
<path class="faultArrow" d="M562 850 L562 914"/>
<text x="92" y="1070" class="caption">实线：状态 / 数据 · 虚线：证明 / 观测 · 红线：拒绝 / 恢复</text>
<rect x="1368" y="710" width="462" height="294" rx="8" fill="#ffffff" stroke="#cbd5e1" stroke-width="1.2"/>
<rect x="1378" y="720" width="442" height="58" rx="6" fill="#fff7ed"/>
<text x="1390" y="743" class="strong">安全性</text>
<text x="1518" y="740" class="small">错误根、缺失数据和重放消息必须默认失败。</text>
<rect x="1378" y="788" width="442" height="58" rx="6" fill="#ffffff"/>
<text x="1390" y="811" class="strong">活性</text>
<text x="1518" y="808" class="small">强制纳入和运维 runbook 提供恢复路径。</text>
<rect x="1378" y="856" width="442" height="58" rx="6" fill="#fff7ed"/>
<text x="1390" y="879" class="strong">成本</text>
<text x="1518" y="876" class="small">L1 验证压缩证据，重执行和数据保留在链下或 L2。</text>
<rect x="1378" y="924" width="442" height="58" rx="6" fill="#ffffff"/>
<text x="1390" y="947" class="strong">用户模型</text>
<text x="1518" y="944" class="small">用户在所有 L2 上看到统一的 NEO/GAS/稳定币/BTC 资产。</text>
<line x1="1504" y1="724" x2="1504" y2="992" stroke="#b45309" stroke-width="1.2" stroke-dasharray="4 5"/>
<rect x="1368" y="1026" width="462" height="74" rx="8" fill="#f8fafc" stroke="#cbd5e1" stroke-width="1.2"/>
<line x1="1388" y1="1050" x2="1434" y2="1050" stroke="#b45309" stroke-width="2.6" marker-end="url(#arrowAccent)"/>
<text x="1450" y="1054" class="small">实线：状态 / 数据</text>
<line x1="1388" y1="1074" x2="1434" y2="1074" stroke="#64748b" stroke-width="2.0" stroke-dasharray="7 6" marker-end="url(#arrowGray)"/>
<text x="1450" y="1078" class="small">虚线：证明 / 观测</text>
<line x1="1660" y1="1074" x2="1704" y2="1074" stroke="#dc2626" stroke-width="2.2" stroke-dasharray="5 5" marker-end="url(#arrowFault)"/>
<text x="1718" y="1078" class="small">红线：拒绝 / 恢复</text>
<text x="56" y="1146" class="caption">论文式图表根据协议概念生成；刻意不展示源码文件清单。</text>
</svg>
