<svg xmlns="http://www.w3.org/2000/svg" width="1920" height="1180" viewBox="0 0 1920 1180" role="img" aria-label="Watcher State Machine">
<defs>
<marker id="arrowAccent" viewBox="0 0 10 10" refX="9.2" refY="5" markerWidth="10" markerHeight="10" orient="auto"><path d="M0,0 L10,5 L0,10 Z" fill="#1d4ed8"/></marker>
<marker id="arrowGray" viewBox="0 0 10 10" refX="9.2" refY="5" markerWidth="10" markerHeight="10" orient="auto"><path d="M0,0 L10,5 L0,10 Z" fill="#475569"/></marker>
<marker id="arrowFault" viewBox="0 0 10 10" refX="9.2" refY="5" markerWidth="10" markerHeight="10" orient="auto"><path d="M0,0 L10,5 L0,10 Z" fill="#dc2626"/></marker>
<filter id="shadow" x="-3%" y="-4%" width="106%" height="108%"><feDropShadow dx="0" dy="8" stdDeviation="10" flood-color="#0f172a" flood-opacity="0.10"/></filter>
<style>
.bg{fill:#f8fafc}.panel{fill:#ffffff;stroke:#cbd5e1;stroke-width:1.5;filter:url(#shadow)}
.title{font:800 36px 'Inter','Segoe UI',Arial,sans-serif;fill:#0f172a}.subtitle{font:500 17px 'Inter','Segoe UI',Arial,sans-serif;fill:#475569}
.panelTitle{font:750 22px 'Inter','Segoe UI',Arial,sans-serif;fill:#0f172a}.panelSub{font:500 15px 'Inter','Segoe UI',Arial,sans-serif;fill:#475569}
.strong{font:760 15px 'Inter','Segoe UI',Arial,sans-serif;fill:#0f172a}.body{font:500 14px 'Inter','Segoe UI',Arial,sans-serif;fill:#334155}.small{font:500 13px 'Inter','Segoe UI',Arial,sans-serif;fill:#475569}
.mono{font:650 14px 'Cascadia Mono','SFMono-Regular',Consolas,monospace;fill:#0f172a}.label{font:800 14px 'Inter','Segoe UI',Arial,sans-serif;fill:#ffffff}.caption{font:500 13px 'Inter','Segoe UI',Arial,sans-serif;fill:#64748b}
.accentArrow{stroke:#1d4ed8;stroke-width:2.6;fill:none;marker-end:url(#arrowAccent)}.dashArrow{stroke:#64748b;stroke-width:2.0;fill:none;stroke-dasharray:7 6;marker-end:url(#arrowGray)}.faultArrow{stroke:#dc2626;stroke-width:2.2;fill:none;stroke-dasharray:5 5;marker-end:url(#arrowFault)}
</style>
</defs>
<rect class="bg" width="1920" height="1180"/>
<text x="56" y="66" class="title">Watcher State Machine</text>
<text x="56" y="98" class="subtitle">External-chain watcher states from cursor polling to relay submission and quarantine.</text>
<rect x="56" y="118" width="1808" height="38" rx="6" fill="#eff6ff" stroke="#1d4ed8" stroke-width="1.2"/>
<text x="76" y="143" class="small">Read as: <tspan class="strong">paper-style technical figure focused on architecture, principles, data flow, workflow, and audit conditions.</tspan></text>
<rect x="56" y="178" width="870" height="392" rx="10" class="panel"/>
<rect x="56" y="178" width="870" height="54" rx="10" fill="#eff6ff"/>
<circle cx="86" cy="206" r="16" fill="#1d4ed8"/>
<text x="86" y="211" text-anchor="middle" class="label">a</text>
<text x="114" y="210" class="panelTitle">Technical Topology</text>
<text x="114" y="230" class="panelSub">planes, boundaries, and responsibilities</text>
<rect x="966" y="178" width="898" height="392" rx="10" class="panel"/>
<rect x="966" y="178" width="898" height="54" rx="10" fill="#eff6ff"/>
<circle cx="996" cy="206" r="16" fill="#1d4ed8"/>
<text x="996" y="211" text-anchor="middle" class="label">b</text>
<text x="1024" y="210" class="panelTitle">Technical Model</text>
<text x="1024" y="230" class="panelSub">formal rules and acceptance conditions</text>
<rect x="56" y="606" width="1240" height="494" rx="10" class="panel"/>
<rect x="56" y="606" width="1240" height="54" rx="10" fill="#eff6ff"/>
<circle cx="86" cy="634" r="16" fill="#1d4ed8"/>
<text x="86" y="639" text-anchor="middle" class="label">c</text>
<text x="114" y="638" class="panelTitle">Numbered Protocol Path</text>
<text x="114" y="658" class="panelSub">how key objects advance</text>
<rect x="1334" y="606" width="530" height="494" rx="10" class="panel"/>
<rect x="1334" y="606" width="530" height="54" rx="10" fill="#eff6ff"/>
<circle cx="1364" cy="634" r="16" fill="#1d4ed8"/>
<text x="1364" y="639" text-anchor="middle" class="label">d</text>
<text x="1392" y="638" class="panelTitle">Audit Checkpoints</text>
<text x="1392" y="658" class="panelSub">conditions readers should verify</text>
<rect x="92" y="270" width="180" height="208" rx="8" fill="#eff6ff" stroke="#1d4ed8" stroke-width="1.4"/>
<text x="106" y="298" class="strong">Candidate</text>
<text x="106" y="328" class="body">input has been</text>
<text x="106" y="346" class="body">observed but is not</text>
<text x="106" y="364" class="body">yet canonical.</text>
<path class="accentArrow" d="M272 374 C284 374 282 428 300 428"/>
<rect x="300" y="324" width="180" height="208" rx="8" fill="#eff6ff" stroke="#1d4ed8" stroke-width="1.4"/>
<text x="314" y="352" class="strong">Validated</text>
<text x="314" y="382" class="body">shape, registry,</text>
<text x="314" y="400" class="body">policy, and evidence</text>
<text x="314" y="418" class="body">checks pass.</text>
<path class="accentArrow" d="M480 428 C492 428 490 374 508 374"/>
<rect x="508" y="270" width="180" height="208" rx="8" fill="#eff6ff" stroke="#1d4ed8" stroke-width="1.4"/>
<text x="522" y="298" class="strong">Committed</text>
<text x="522" y="328" class="body">state root, nonce, or</text>
<text x="522" y="346" class="body">registry entry</text>
<text x="522" y="364" class="body">advances.</text>
<path class="accentArrow" d="M688 374 C700 374 698 428 716 428"/>
<rect x="716" y="324" width="180" height="208" rx="8" fill="#eff6ff" stroke="#1d4ed8" stroke-width="1.4"/>
<text x="730" y="352" class="strong">Rejected</text>
<text x="730" y="382" class="body">invalid or late data</text>
<text x="730" y="400" class="body">is quarantined without</text>
<text x="730" y="418" class="body">advancing canonical</text>
<text x="730" y="436" class="body">state.</text>
<line x1="296" y1="528" x2="752" y2="528" stroke="#1d4ed8" stroke-width="1.4" stroke-dasharray="6 6"/>
<text x="522" y="552" class="caption" text-anchor="middle">canonical boundary: hashes, roots, events, proofs, DA references</text>
<rect x="1000" y="252" width="828" height="62" rx="8" fill="#eff6ff" stroke="#1d4ed8" stroke-width="1.5"/>
<text x="1020" y="290" class="mono">S_next = transition(S, event) or S stays unchanged</text>
<rect x="1012" y="342" width="630" height="54" rx="8" fill="#ffffff" stroke="#cbd5e1" stroke-width="1.2"/>
<circle cx="1038" cy="369" r="15" fill="#1d4ed8"/>
<text x="1038" y="374" text-anchor="middle" class="label">1</text>
<text x="1066" y="365" class="strong">Transition</text>
<text x="1066" y="385" class="small">state moves only through named gates</text>
<path class="accentArrow" d="M1328 396 L1328 414"/>
<rect x="1012" y="414" width="630" height="54" rx="8" fill="#ffffff" stroke="#cbd5e1" stroke-width="1.2"/>
<circle cx="1038" cy="441" r="15" fill="#1d4ed8"/>
<text x="1038" y="446" text-anchor="middle" class="label">2</text>
<text x="1066" y="437" class="strong">Finality</text>
<text x="1066" y="457" class="small">committed state is observable through a canonical event or root</text>
<path class="accentArrow" d="M1328 468 L1328 486"/>
<rect x="1012" y="486" width="630" height="54" rx="8" fill="#ffffff" stroke="#cbd5e1" stroke-width="1.2"/>
<circle cx="1038" cy="513" r="15" fill="#1d4ed8"/>
<text x="1038" y="518" text-anchor="middle" class="label">3</text>
<text x="1066" y="509" class="strong">Rollback</text>
<text x="1066" y="529" class="small">rejection retains diagnostics and preserves previous state</text>
<rect x="1672" y="358" width="146" height="174" rx="8" fill="#ffffff" stroke="#1d4ed8" stroke-width="1.4"/>
<text x="1686" y="386" class="strong">Acceptance</text>
<text x="1686" y="416" class="body">transition gate</text>
<text x="1686" y="434" class="body">passes; otherwise</text>
<text x="1686" y="452" class="body">previous state</text>
<text x="1686" y="470" class="body">remains</text>
<path class="dashArrow" d="M1642 460 L1672 460"/>
<text x="1014" y="562" class="mono">transition gate passes; otherwise previous state remains</text>
<rect x="92" y="730" width="150" height="120" rx="8" fill="#eff6ff" stroke="#1d4ed8" stroke-width="1.5"/>
<rect x="102" y="740" width="30" height="24" rx="5" fill="#1d4ed8"/>
<text x="117" y="757" text-anchor="middle" class="label">1</text>
<text x="140" y="758" class="strong">Candidate</text>
<text x="104" y="788" class="small">event or config is</text>
<text x="104" y="805" class="small">observed</text>
<path class="accentArrow" d="M242 790 L290 790"/>
<rect x="290" y="730" width="150" height="120" rx="8" fill="#eff6ff" stroke="#1d4ed8" stroke-width="1.5"/>
<rect x="300" y="740" width="30" height="24" rx="5" fill="#1d4ed8"/>
<text x="315" y="757" text-anchor="middle" class="label">2</text>
<text x="338" y="758" class="strong">Validate</text>
<text x="302" y="788" class="small">shape, policy, and</text>
<text x="302" y="805" class="small">evidence checks</text>
<text x="302" y="822" class="small">pass</text>
<path class="accentArrow" d="M440 790 L488 790"/>
<rect x="488" y="730" width="150" height="120" rx="8" fill="#eff6ff" stroke="#1d4ed8" stroke-width="1.5"/>
<rect x="498" y="740" width="30" height="24" rx="5" fill="#1d4ed8"/>
<text x="513" y="757" text-anchor="middle" class="label">3</text>
<text x="536" y="758" class="strong">Admit</text>
<text x="500" y="788" class="small">state transition</text>
<text x="500" y="805" class="small">becomes eligible</text>
<path class="accentArrow" d="M638 790 L686 790"/>
<rect x="686" y="730" width="150" height="120" rx="8" fill="#eff6ff" stroke="#1d4ed8" stroke-width="1.5"/>
<rect x="696" y="740" width="30" height="24" rx="5" fill="#1d4ed8"/>
<text x="711" y="757" text-anchor="middle" class="label">4</text>
<text x="734" y="758" class="strong">Commit</text>
<text x="698" y="788" class="small">root, nonce, or</text>
<text x="698" y="805" class="small">registry entry</text>
<text x="698" y="822" class="small">advances</text>
<path class="accentArrow" d="M836 790 L884 790"/>
<rect x="884" y="730" width="150" height="120" rx="8" fill="#eff6ff" stroke="#1d4ed8" stroke-width="1.5"/>
<rect x="894" y="740" width="30" height="24" rx="5" fill="#1d4ed8"/>
<text x="909" y="757" text-anchor="middle" class="label">5</text>
<text x="932" y="758" class="strong">Emit</text>
<text x="896" y="788" class="small">canonical event</text>
<text x="896" y="805" class="small">records the</text>
<text x="896" y="822" class="small">transition</text>
<path class="accentArrow" d="M1034 790 L1082 790"/>
<rect x="1082" y="730" width="150" height="120" rx="8" fill="#eff6ff" stroke="#1d4ed8" stroke-width="1.5"/>
<rect x="1092" y="740" width="30" height="24" rx="5" fill="#1d4ed8"/>
<text x="1107" y="757" text-anchor="middle" class="label">6</text>
<text x="1130" y="758" class="strong">Quarantine</text>
<text x="1094" y="788" class="small">invalid data is</text>
<text x="1094" y="805" class="small">isolated</text>
<path class="dashArrow" d="M182 900 C412 974 852 974 1132 900"/>
<rect x="482" y="914" width="210" height="120" rx="8" fill="#fff1f2" stroke="#dc2626" stroke-width="1.4"/>
<text x="496" y="942" class="strong">Reject / Recover</text>
<text x="496" y="972" class="body">bad evidence, replay,</text>
<text x="496" y="990" class="body">missing data, timeout,</text>
<text x="496" y="1008" class="body">policy mismatch</text>
<path class="faultArrow" d="M562 850 L562 914"/>
<text x="92" y="1070" class="caption">solid: state / data · dashed: proof / observation · red: reject / recover</text>
<rect x="1368" y="710" width="462" height="294" rx="8" fill="#ffffff" stroke="#cbd5e1" stroke-width="1.2"/>
<rect x="1378" y="720" width="442" height="58" rx="6" fill="#eff6ff"/>
<text x="1390" y="743" class="strong">Initial</text>
<text x="1518" y="740" class="small">starting state is defined</text>
<rect x="1378" y="788" width="442" height="58" rx="6" fill="#ffffff"/>
<text x="1390" y="811" class="strong">Gate</text>
<text x="1518" y="808" class="small">each transition has one acceptance</text>
<text x="1518" y="825" class="small">condition</text>
<rect x="1378" y="856" width="442" height="58" rx="6" fill="#eff6ff"/>
<text x="1390" y="879" class="strong">Idempotence</text>
<text x="1518" y="876" class="small">retries do not duplicate effects</text>
<rect x="1378" y="924" width="442" height="58" rx="6" fill="#ffffff"/>
<text x="1390" y="947" class="strong">Diagnostics</text>
<text x="1518" y="944" class="small">rejection reason is stored</text>
<line x1="1504" y1="724" x2="1504" y2="992" stroke="#1d4ed8" stroke-width="1.2" stroke-dasharray="4 5"/>
<rect x="1368" y="1026" width="462" height="74" rx="8" fill="#f8fafc" stroke="#cbd5e1" stroke-width="1.2"/>
<line x1="1388" y1="1050" x2="1434" y2="1050" stroke="#1d4ed8" stroke-width="2.6" marker-end="url(#arrowAccent)"/>
<text x="1450" y="1054" class="small">solid: state / data</text>
<line x1="1388" y1="1074" x2="1434" y2="1074" stroke="#64748b" stroke-width="2.0" stroke-dasharray="7 6" marker-end="url(#arrowGray)"/>
<text x="1450" y="1078" class="small">dashed: proof / observation</text>
<line x1="1660" y1="1074" x2="1704" y2="1074" stroke="#dc2626" stroke-width="2.2" stroke-dasharray="5 5" marker-end="url(#arrowFault)"/>
<text x="1718" y="1078" class="small">red: reject / recover</text>
<text x="56" y="1146" class="caption">Generated by the legacy paper figure generator; original filename preserved so documentation links stay stable · visual-guide/watcher-state-machine.svg</text>
</svg>
